<!DOCTYPE svg PUBLIC "-//W3C//DTD SVG 1.1//EN" "http://www.w3.org/Graphics/SVG/1.1/DTD/svg11.dtd">
<!-- Uploaded to: SVG Repo, www.svgrepo.com, Transformed by: SVG Repo Mixer Tools -->
<svg fill="#000000" version="1.1" id="Capa_1" xmlns="http://www.w3.org/2000/svg" xmlns:xlink="http://www.w3.org/1999/xlink" width="122px" height="122px" viewBox="0 0 30.52 30.52" xml:space="preserve" stroke="#000000" stroke-width="0.00030515">
<g id="SVGRepo_bgCarrier" stroke-width="0"/>
<g id="SVGRepo_tracerCarrier" stroke-linecap="round" stroke-linejoin="round"/>
<g id="SVGRepo_iconCarrier"> <g> <path d="M24.701,18.189l5.814,4.35l-5.814,4.348v-2.441h-5.697c-2.324,0-4.406-1.043-5.813-2.682 c-1.408,1.639-3.49,2.682-5.814,2.682H0v-4h7.375c2.025,0,3.674-1.647,3.674-3.674v-3.405c0-2.024-1.648-3.672-3.674-3.672H0v-4 h7.375c2.325,0,4.407,1.043,5.814,2.681c1.408-1.638,3.49-2.681,5.814-2.681h5.695V3.629l5.814,4.35l-5.814,4.35V9.696h-5.695 c-2.025,0-3.674,1.647-3.674,3.672v3.406c0,2.024,1.646,3.674,3.674,3.674h5.695v-2.258H24.701z"/> </g> </g>
</svg>